<svg width="198" height="129" viewBox="0 0 198 129" fill="none" xmlns="http://www.w3.org/2000/svg">
<g clip-path="url(#clip0)">
<path d="M198.4 -0.299988H155.5V24.8H198.4V-0.299988Z" fill="#40AB5D"/>
<path d="M198.4 34.5H155.5V59.6H198.4V34.5Z" fill="url(#paint0_linear)"/>
<path d="M198.4 69.3H155.5V94.4H198.4V69.3Z" fill="url(#paint1_linear)"/>
<path d="M42.9 104.1H0V129.2H42.9V104.1Z" fill="url(#paint2_linear)"/>
<path d="M94.7 104.1H51.8V129.2H94.7V104.1Z" fill="url(#paint3_linear)"/>
<path d="M146.6 104.1H103.7V129.2H146.6V104.1Z" fill="url(#paint4_linear)"/>
<path d="M198.4 104.1H155.5V129.2H198.4V104.1Z" fill="url(#paint5_linear)"/>
<path d="M146.6 69.3H103.7V94.4H146.6V69.3Z" fill="url(#paint6_linear)"/>
<path d="M94.7 69.3H51.8V94.4H94.7V69.3Z" fill="url(#paint7_linear)"/>
<path d="M94.7 34.5H51.8V59.6H94.7V34.5Z" fill="url(#paint8_linear)"/>
</g>
<defs>
<linearGradient id="paint0_linear" x1="177.16" y1="59.8168" x2="176.757" y2="34.1315" gradientUnits="userSpaceOnUse">
<stop stop-color="#358C7B"/>
<stop offset="0.5256" stop-color="#33A65E"/>
</linearGradient>
<linearGradient id="paint1_linear" x1="154.869" y1="93.1112" x2="199.05" y2="70.5999" gradientUnits="userSpaceOnUse">
<stop stop-color="#222B90"/>
<stop offset="1" stop-color="#367B99"/>
</linearGradient>
<linearGradient id="paint2_linear" x1="0.00784558" y1="116.66" x2="42.872" y2="116.66" gradientUnits="userSpaceOnUse">
<stop stop-color="#FF9900"/>
<stop offset="1" stop-color="#FF8000"/>
</linearGradient>
<linearGradient id="paint3_linear" x1="51.8478" y1="116.66" x2="94.7119" y2="116.66" gradientUnits="userSpaceOnUse">
<stop stop-color="#FF8000"/>
<stop offset="1" stop-color="#CC1953"/>
</linearGradient>
<linearGradient id="paint4_linear" x1="103.688" y1="116.66" x2="146.552" y2="116.66" gradientUnits="userSpaceOnUse">
<stop stop-color="#CC1953"/>
<stop offset="1" stop-color="#241284"/>
</linearGradient>
<linearGradient id="paint5_linear" x1="155.477" y1="116.66" x2="198.341" y2="116.66" gradientUnits="userSpaceOnUse">
<stop stop-color="#222B90"/>
<stop offset="1" stop-color="#3559A6"/>
</linearGradient>
<linearGradient id="paint6_linear" x1="101.996" y1="88.6174" x2="148.244" y2="75.0936" gradientUnits="userSpaceOnUse">
<stop stop-color="#CC1953"/>
<stop offset="1" stop-color="#241284"/>
</linearGradient>
<linearGradient id="paint7_linear" x1="50.3221" y1="73.4996" x2="96.2376" y2="90.2117" gradientUnits="userSpaceOnUse">
<stop offset="0.00266984" stop-color="#FFCC00"/>
<stop offset="0.9999" stop-color="#CE1938"/>
</linearGradient>
<linearGradient id="paint8_linear" x1="55.4506" y1="30.5992" x2="91.1091" y2="63.5036" gradientUnits="userSpaceOnUse">
<stop offset="0.00266984" stop-color="#FFD100"/>
<stop offset="1" stop-color="#FD5A22"/>
</linearGradient>
<clipPath id="clip0">
<rect x="-55" y="-38" width="1000" height="191.2" fill="white"/>
</clipPath>
</defs>
</svg>
